<?xml version="1.0" encoding="utf-8"?>
<!-- Generator: Adobe Illustrator 16.0.0, SVG Export Plug-In . SVG Version: 6.00 Build 0)  -->
<!DOCTYPE svg PUBLIC "-//W3C//DTD SVG 1.1//EN" "http://www.w3.org/Graphics/SVG/1.1/DTD/svg11.dtd">
<svg version="1.1" xmlns="http://www.w3.org/2000/svg" xmlns:xlink="http://www.w3.org/1999/xlink" x="0px" y="0px" width="24px"
	 height="24px" viewBox="0 0 24 24" enable-background="new 0 0 24 24" xml:space="preserve">
<g id="Layer_1">
</g>
<g id="Layer_2">
	<path fill="none" stroke="#2B1A00" stroke-width="2.2" stroke-miterlimit="10" d="M11.385,6.515c0-2.821-2.287-5.109-5.108-5.109
		S1.168,3.694,1.168,6.515c0,2.398,1.656,4.405,3.886,4.954l1.303,1.107l1.281-1.141C9.796,10.837,11.385,8.864,11.385,6.515z"/>
	<path fill="none" stroke="#2B1A00" stroke-width="2.2" stroke-miterlimit="10" d="M22.679,14.922c0-2.82-2.287-5.108-5.108-5.108
		s-5.108,2.288-5.108,5.108c0,2.398,1.656,4.406,3.886,4.955l1.304,1.105l1.281-1.141C21.091,19.244,22.679,17.271,22.679,14.922z"
		/>
	<polyline fill="none" stroke="#2B1A00" stroke-width="1.5" stroke-miterlimit="10" points="4.625,14.833 1.656,18.031 6,21.594 
		13.875,21.698 	"/>
</g>
<g id="Layer_3">
</g>
</svg>
